<svg xmlns="http://www.w3.org/2000/svg" viewBox="0 0 1920 1080"><defs><style>.cls-1{fill:#73b22c;}.cls-2{fill:#027846;}.cls-3{fill:#ffcf02;}.cls-4{fill:#007947;}</style></defs><g id="Layer_2" data-name="Layer 2"><path class="cls-1" d="M804.92,495.79,794.59,501h-2.67V469.81h2.67L805,492.39a38.8,38.8,0,0,0,23.07,7.17q10.7,0,17.67-5.65t7-15.85q0-7.4-4.5-11.72t-14.57-6.86l-20.16-5.22q-10.56-2.79-15.91-9.53a25,25,0,0,1-5.34-16,32,32,0,0,1,3.34-14.88,23.69,23.69,0,0,1,9.77-10.08,31.07,31.07,0,0,1,15.3-3.58A49.79,49.79,0,0,1,840.5,404l8.87-3.76H852V425h-2.67l-8.75-17.73a45.19,45.19,0,0,0-19.79-4.37q-10.58,0-16.64,5.41t-6.07,14.26q0,6.57,4.31,10.33t12.69,5.95l21.74,5.71q10.56,2.67,15.72,9.16t5.17,19.74q0,13.49-8.32,21.13t-22.29,7.65A43.32,43.32,0,0,1,804.92,495.79Z"/><path class="cls-1" d="M893.2,494.28Q885,486.33,885,473.21V407l-11.18-1.7v-2.67h35.71v2.67L898.3,407v66.19q0,11.9,6.68,18.27t20.28,6.38q25.75,0,25.75-24.65V410.06l-11.29-4.74v-2.67h25.86v2.67l-11.66,4.74v63.15q0,14.57-8.13,21.8t-26.48,7.22Q901.46,502.23,893.2,494.28Z"/><path class="cls-1" d="M995.7,495.79,985.38,501h-2.67V469.81h2.67l10.44,22.58a38.81,38.81,0,0,0,23.08,7.17q10.68,0,17.67-5.65t7-15.85q0-7.4-4.49-11.72t-14.58-6.86l-20.16-5.22q-10.56-2.79-15.91-9.53a25,25,0,0,1-5.34-16,32,32,0,0,1,3.34-14.88,23.71,23.71,0,0,1,9.78-10.08,31.07,31.07,0,0,1,15.3-3.58,49.78,49.78,0,0,1,19.79,3.76l8.87-3.76h2.67V425h-2.67l-8.75-17.73a45.19,45.19,0,0,0-19.79-4.37q-10.56,0-16.64,5.41t-6.07,14.26q0,6.57,4.31,10.33t12.69,5.95l21.74,5.71q10.56,2.67,15.73,9.16t5.16,19.74q0,13.49-8.32,21.13t-22.29,7.65A43.35,43.35,0,0,1,995.7,495.79Z"/><path class="cls-1" d="M1116.66,501l-36.2-94v85.37l11.66,4.86v2.55h-26v-2.55l11.42-4.86V407l-11.17-1.7v-2.67h26.84l30.48,78,31.09-78h24.53v2.67l-11.17,1.7v88.41l11.17,1.82v2.55h-35.7v-2.55l11.17-1.82V410.66l-36,90.36Z"/><path class="cls-1" d="M1194.86,499.8v-2.55l11.18-1.82V407l-11.18-1.7v-2.67h35.71v2.67L1219.4,407v88.41l11.17,1.82v2.55Z"/><path class="cls-1" d="M1265.91,499.8v-2.55l11.17-1.82V405.68h-20l-9.23,24.05h-3.52V402.65h79.06v27.08h-3.64l-9.11-24.05h-20.16v89.75l11.17,1.82v2.55Z"/><path class="cls-1" d="M1320.19,499.8v-2.55l11.9-4.86,35.1-92.17h1.94l33.16,95.21,11.17,1.82v2.55h-35.7v-2.55l10-1.58-10.33-28.78h-32.3l-9.84,25.5,10.93,4.86v2.55Zm25.87-35.46h30.48L1362,421.59Z"/><path class="cls-2" d="M789,645.53V643l11.29-4.86V555.79L789,551.05v-2.67H811.6l52.34,73.35V555.79l-11.3-4.74v-2.67h25.87v2.67L867,555.79v89.74h-3l-60.6-85.13v77.72L815,643v2.55Z"/><path class="cls-2" d="M906.56,640q-8.25-7.95-8.25-21.07V552.75l-11.18-1.7v-2.67h35.71v2.67l-11.18,1.7v66.19q0,11.89,6.68,18.27t20.28,6.38q25.75,0,25.75-24.65V555.79l-11.29-4.74v-2.67h25.86v2.67l-11.65,4.74v63.15q0,14.56-8.14,21.8T932.67,648Q914.82,648,906.56,640Z"/><path class="cls-2" d="M1048.53,643.47q-3.4-3.29-4.62-11.17l-2.3-16.28q-1.21-8.25-5.65-12.93t-13.78-4.68h-9.48v42.75l11.18,1.82v2.55H988.17V643l11.17-1.82V552.75l-11.17-1.7v-2.67h34q19.78,0,28.66,6.19t8.86,18.83q0,20.88-25.26,24.16v.73q9.35,1.34,15,6.68a24.38,24.38,0,0,1,7.1,14.21l1.58,10.44q1,6.81,2.25,9.23a4.19,4.19,0,0,0,4,2.43,8,8,0,0,0,3.88-1.15,17.69,17.69,0,0,0,3.89-3l2.06,2.19a22,22,0,0,1-7.28,5.71,19.62,19.62,0,0,1-8.14,1.7C1054.2,646.75,1050.79,645.65,1048.53,643.47Zm-22.23-48q8.87,0,13.79-5.41t4.92-16v-2.55q0-20.15-22.83-20.15h-9.48V595.5Z"/><path class="cls-2" d="M1094,641.53l-10.33,5.22H1081V615.54h2.67l10.45,22.58a38.8,38.8,0,0,0,23.07,7.17q10.69,0,17.67-5.65t7-15.85q0-7.39-4.5-11.71t-14.57-6.87L1102.57,600q-10.56-2.79-15.91-9.53a24.94,24.94,0,0,1-5.34-16,32,32,0,0,1,3.34-14.88,23.69,23.69,0,0,1,9.77-10.08,31.08,31.08,0,0,1,15.31-3.58,49.78,49.78,0,0,1,19.79,3.76l8.87-3.76h2.67v24.77h-2.67L1129.65,553a45.19,45.19,0,0,0-19.79-4.37q-10.58,0-16.64,5.41t-6.07,14.27q0,6.56,4.31,10.32t12.69,6l21.74,5.71q10.56,2.67,15.72,9.17t5.17,19.73q0,13.49-8.32,21.13T1116.17,648A43.31,43.31,0,0,1,1094,641.53Z"/><path class="cls-2" d="M1159.77,645.53V643l11.17-1.82V552.75l-11.17-1.7v-2.67h73.1v27.81h-3.27l-9.35-24.77h-36v43.71h15.79l7.16-17.6h3.16V615.9h-3.16L1200,598.05H1184.3v44.57h38.13l10-26.72h3.16v29.63Z"/><path class="cls-2" d="M1308.9,643.47q-3.4-3.29-4.62-11.17L1302,616q-1.21-8.25-5.65-12.93t-13.79-4.68h-9.47v42.75l11.18,1.82v2.55h-35.71V643l11.17-1.82V552.75l-11.17-1.7v-2.67h34q19.8,0,28.67,6.19t8.86,18.83q0,20.88-25.26,24.16v.73q9.35,1.34,15,6.68a24.38,24.38,0,0,1,7.1,14.21l1.58,10.44q1,6.81,2.25,9.23a4.18,4.18,0,0,0,4,2.43,8,8,0,0,0,3.88-1.15,17.69,17.69,0,0,0,3.89-3l2.06,2.19a22,22,0,0,1-7.28,5.71,19.62,19.62,0,0,1-8.14,1.7Q1312.29,646.75,1308.9,643.47Zm-22.23-48q8.86,0,13.79-5.41t4.92-16v-2.55q0-20.15-22.84-20.15h-9.47V595.5Z"/><path class="cls-2" d="M1355.17,645.53V643l11.29-1.82V604.24L1337,552.75l-9.59-1.7v-2.67h36.55v2.67l-11.29,1.7,25.5,44.08,23.44-40L1387,551.05v-2.67h27.21v2.67l-9.35,6-25.26,43.24v40.92l11.29,1.82v2.55Z"/><path class="cls-3" d="M503.26,400.74h61.45L703.14,585.21V443.36q0-22.67-4.67-28.29-6.18-7.62-19.54-7.62h-7.85v-6.71H749.9v6.71h-8q-14.36,0-20.37,9.43-3.68,5.81-3.67,26.48v204h-6L562.54,452.61V604.07q0,22.68,4.51,28.3Q573.4,640,586.59,640h8v7.4H515.79V640h7.84q14.54,0,20.54-9.43,3.68-5.81,3.68-26.48V433q-9.86-12.51-15-16.5T518,409.08q-4.85-1.63-14.7-1.63Z"/><path class="cls-4" d="M574.32,598.2c4,6.67,9.86,9.7,15.31,13,20.92,12.83,42.92,18.74,66.55,11.27,14.62-4.62,25.37-19.91,24.9-34.68-.29-9.17-4.5-16.24-10-22.4-10.51-11.77-23.55-18.9-37.21-24.72-16.7-7.11-34-12.59-49.19-23.71-6.11-4.49-12-9.32-16.78-15.54-12.9-16.67-14.7-36.24-5.23-56,2.07-4.31,4-8.71,7.9-12C569,441,567.08,448,566.05,455.27c-3,21.27,6.58,35.76,21,47.35,13.55,10.89,29.14,17.07,44.34,24.16,16.06,7.48,31.89,15.4,45,28.89,15.71,16.2,19.75,45.34,10.83,63.81a42.62,42.62,0,0,1-24.28,21.91c-24.26,9.07-48.19,6.59-71.76-3.55a58.52,58.52,0,0,1-18.26-13c-16.53-16.67-35.82-27.58-58-34.06,22.1-15.6,45-26.08,71-24.78,29.34,1.46,52.79,16.42,71.89,40.91,2.19,2.8,1.7,4.19-1,5.69C656.79,612.65,616,626.12,574.32,598.2Z"/><path class="cls-1" d="M683.77,439.71c-18.1-17-38.58-24.94-62-19.84-18.29,4-27,22.69-19.16,41.52,3.47,8.3,10.51,13.76,17.45,18.59,12.41,8.65,26.41,13,40,18.46,18,7.28,34.14,17.88,45.13,36.23,8.71,14.55,11.25,30.75,9.18,48-.18,1.48.19,4.12-2.29,3.82-1.79-.22-1.14-2.17-1.24-3.43-2.37-31.07-17-52.49-41.25-66.41-12.34-7.1-25.84-10.73-38.67-16.36-14.72-6.45-29.19-13.14-38.22-29.17-3.58-6.35-4.52-13.31-4.77-20.29-.81-22.61,11.49-41.2,31.14-46.4,23-6.08,44.71-3.66,64.19,13.63,11.46,10.18,24.62,17.2,39.2,20.31,1.1.23,2.74.1,2.92,1.89.14,1.35-1.18,1.86-2,2.5-21.93,16.83-45.68,24.54-71.89,16.13-13.6-4.36-25.14-13.34-35.24-24.51-1.82-2-1.76-3.73.56-5.19a22,22,0,0,1,9.5-3.44c17.28-1.85,33.27,3.68,49.06,10.46C678.15,437.37,681,438.53,683.77,439.71Z"/><polygon class="cls-3" points="703.14 517.92 703.14 597.51 717.84 598.7 717.84 517.92 703.14 517.92"/><polygon class="cls-3" points="562.54 504.16 562.54 429.01 547.85 436.44 547.85 504.16 562.54 504.16"/><polygon class="cls-3" points="571.27 464 558.76 447.13 568.86 425.75 579.55 445.5 571.27 464"/></g></svg>